<svg width="582" height="222" viewBox="0 0 582 222" fill="none" xmlns="http://www.w3.org/2000/svg">
<mask id="mask0_25_27" style="mask-type:alpha" maskUnits="userSpaceOnUse" x="0" y="0" width="582" height="222">
<rect y="29.9362" width="572" height="192" transform="rotate(-3 0 29.9362)" fill="#D9D9D9"/>
</mask>
<g mask="url(#mask0_25_27)">
<mask id="mask1_25_27" style="mask-type:alpha" maskUnits="userSpaceOnUse" x="-132" y="-30" width="836" height="279">
<rect x="-131.026" y="13.7714" width="823" height="235" transform="rotate(-3 -131.026 13.7714)" fill="#D9D9D9"/>
</mask>
<g mask="url(#mask1_25_27)">
<path d="M122.596 77.8449L122.416 77.8543L109.624 126.11L140.003 124.518L122.596 77.8449ZM157.107 168.863L148.267 144.633L104.227 146.941L97.0695 172.01L70.6457 173.395L106.992 51.8059L135.932 50.2892L184.25 167.441L157.107 168.863ZM187.23 167.285L186.288 149.309L228.683 94.9962L186.621 97.2006L185.651 78.686L257.552 74.9179L258.541 93.792L216.07 146.667L262.447 144.237L263.445 163.291L187.23 167.285ZM322.292 107.214C322.002 103.985 321.255 101.2 320.051 98.8597C318.961 96.3934 317.536 94.4253 315.776 92.9553C314.011 91.3656 312.031 90.2677 309.836 89.6617C307.635 88.9359 305.396 88.6327 303.119 88.752C298.446 88.997 294.462 90.9481 291.169 94.6055C287.99 98.1367 286.32 102.971 286.161 109.107L322.292 107.214ZM286.215 123.885C286.926 130.577 289.123 135.809 292.805 139.581C296.608 143.348 301.385 145.08 307.137 144.779C310.972 144.578 314.283 143.563 317.071 141.734C319.973 139.78 321.761 137.223 322.437 134.063L346.524 132.801C344.245 142.053 339.819 149.314 333.246 154.586C326.673 159.857 318.653 162.74 309.186 163.237C279.706 164.782 264.125 149.496 262.442 117.38C262.084 110.55 262.719 104.328 264.347 98.7148C265.976 93.1019 268.484 88.224 271.872 84.081C275.38 79.9317 279.716 76.7003 284.882 74.3868C290.042 71.9534 296.037 70.5577 302.868 70.1998C316.529 69.4838 327.064 73.3177 334.473 81.7014C342.002 90.0789 346.228 103.076 347.151 120.691L286.215 123.885ZM357.224 158.376L352.59 69.9372L374.519 68.7879L375.075 79.3933C376.836 76.2969 378.69 73.8565 380.64 72.072C382.709 70.2813 384.8 68.91 386.913 67.9581C389.14 66.8801 391.385 66.1616 393.649 65.8026C395.914 65.4436 398.244 65.2013 400.641 65.0757L403.697 64.9155L404.95 88.8227C402.774 88.5763 400.607 88.5095 398.45 88.6226C384.19 89.3699 377.433 96.8738 378.181 111.134L380.592 157.151L357.224 158.376ZM452.131 136.098C466.392 135.351 473.051 125.99 472.109 108.014C471.173 90.1587 463.575 81.6046 449.315 82.352C435.054 83.0993 428.392 92.4008 429.328 110.256C430.27 128.232 437.871 136.846 452.131 136.098ZM453.158 155.691C445.968 156.068 439.497 155.266 433.746 153.284C427.994 151.302 423.034 148.378 418.866 144.511C414.818 140.637 411.624 135.878 409.286 130.233C406.947 124.587 405.599 118.349 405.241 111.519C404.876 104.568 405.562 98.1635 407.298 92.3046C409.154 86.4394 411.952 81.366 415.693 77.0844C419.434 72.8027 424.004 69.4389 429.404 66.993C434.917 64.4209 441.208 62.9496 448.278 62.5791C455.229 62.2148 461.52 63.0267 467.152 65.0147C472.777 66.8828 477.614 69.7536 481.662 73.6271C485.824 77.3744 489.074 82.0707 491.413 87.7161C493.872 93.3551 495.286 99.7098 495.657 106.78C496.027 113.85 495.285 120.318 493.429 126.183C491.687 131.922 488.946 136.933 485.204 141.214C481.583 145.49 477.016 148.913 471.503 151.485C466.104 153.931 459.989 155.333 453.158 155.691Z" fill="black"/>
</g>
<path d="M544.434 14.4214L20.1536 41.8978L28.5274 201.679L552.808 174.202L544.434 14.4214Z" stroke="#2844FF" stroke-width="3"/>
<rect x="541.624" y="8.56048" width="9" height="9" transform="rotate(-3 541.624 8.56048)" fill="#2844FF"/>
<rect x="550.05" y="169.34" width="9" height="9" transform="rotate(-3 550.05 169.34)" fill="#2844FF"/>
<rect x="22.7733" y="196.973" width="9" height="9" transform="rotate(-3 22.7733 196.973)" fill="#2844FF"/>
<rect x="15.3981" y="37.1402" width="9" height="9" transform="rotate(-3 15.3981 37.1402)" fill="#2844FF"/>
</g>
</svg>
