<svg width="948" height="306" viewBox="0 0 948 306" fill="none" xmlns="http://www.w3.org/2000/svg">
<mask id="mask0_62_13" style="mask-type:alpha" maskUnits="userSpaceOnUse" x="0" y="0" width="948" height="306">
<rect width="948" height="306" fill="white"/>
</mask>
<g mask="url(#mask0_62_13)">
<path d="M343.5 59L258.5 200H414L487.5 59H343.5Z" stroke="#0848DD"/>
<circle cx="414" cy="201" r="6" fill="#0152FE"/>
<circle cx="489" cy="58" r="6" fill="#0739DD"/>
<circle cx="489" cy="58" r="6" fill="black" fill-opacity="0.2"/>
<circle cx="343" cy="57" r="6" fill="#0739DD"/>
<path d="M372.398 148.762C380.042 148.762 385.586 146.41 389.03 141.706C392.474 136.918 394.196 129.778 394.196 120.286C394.196 115.582 393.776 111.55 392.936 108.19C392.096 104.83 390.71 102.1 388.778 100C386.93 97.816 384.536 96.262 381.596 95.338C378.656 94.33 375.086 93.826 370.886 93.826H357.908V148.762H372.398ZM340.898 163V79.336H373.28C378.908 79.336 384.116 80.302 388.904 82.234C393.692 84.082 397.766 86.77 401.126 90.298C404.57 93.826 407.258 98.11 409.19 103.15C411.122 108.19 412.088 113.902 412.088 120.286C412.088 126.67 411.206 132.508 409.442 137.8C407.762 143.008 405.326 147.502 402.134 151.282C398.942 154.978 395.12 157.876 390.668 159.976C386.216 161.992 381.302 163 375.926 163H340.898ZM458.635 125.956C458.551 123.688 458.131 121.714 457.375 120.034C456.703 118.27 455.779 116.842 454.603 115.75C453.427 114.574 452.083 113.734 450.571 113.23C449.059 112.642 447.505 112.348 445.909 112.348C442.633 112.348 439.777 113.566 437.341 116.002C434.989 118.354 433.645 121.672 433.309 125.956H458.635ZM432.805 136.288C433.057 140.992 434.401 144.73 436.837 147.502C439.357 150.274 442.633 151.66 446.665 151.66C449.353 151.66 451.705 151.072 453.721 149.896C455.821 148.636 457.165 146.914 457.753 144.73H474.637C472.705 151.114 469.345 156.028 464.557 159.472C459.769 162.916 454.057 164.638 447.421 164.638C426.757 164.638 416.425 153.382 416.425 130.87C416.425 126.082 417.097 121.756 418.441 117.892C419.785 114.028 421.717 110.71 424.237 107.938C426.841 105.166 429.991 103.066 433.687 101.638C437.383 100.126 441.625 99.37 446.413 99.37C455.989 99.37 463.213 102.436 468.085 108.568C473.041 114.7 475.519 123.94 475.519 136.288H432.805ZM518.476 119.782C518.056 116.758 516.964 114.658 515.2 113.482C513.436 112.222 510.664 111.592 506.884 111.592C503.776 111.592 501.382 112.012 499.702 112.852C498.022 113.608 497.182 114.91 497.182 116.758C497.182 118.606 498.022 120.034 499.702 121.042C501.382 121.966 503.902 122.89 507.262 123.814C510.79 124.822 514.15 125.746 517.342 126.586C520.534 127.342 523.348 128.182 525.784 129.106C529.06 130.45 531.58 132.298 533.344 134.65C535.108 136.918 535.99 140.068 535.99 144.1C535.99 150.568 533.68 155.608 529.06 159.22C524.524 162.832 517.804 164.638 508.9 164.638C499.324 164.638 491.974 162.622 486.85 158.59C481.81 154.558 479.206 149.392 479.038 143.092H495.922C495.922 146.032 497.056 148.3 499.324 149.896C501.592 151.492 504.742 152.29 508.774 152.29C511.714 152.29 514.276 151.828 516.46 150.904C518.644 149.896 519.736 148.216 519.736 145.864C519.736 143.68 518.728 142.126 516.712 141.202C514.78 140.278 512.47 139.48 509.782 138.808C504.574 137.548 500.374 136.414 497.182 135.406C493.99 134.398 491.302 133.18 489.118 131.752C486.178 129.904 484.12 127.804 482.944 125.452C481.852 123.1 481.306 120.538 481.306 117.766C481.306 115.162 481.768 112.726 482.692 110.458C483.616 108.19 485.128 106.258 487.228 104.662C489.328 102.982 492.016 101.68 495.292 100.756C498.652 99.832 502.684 99.37 507.388 99.37C516.376 99.37 522.97 101.092 527.17 104.536C531.454 107.98 533.806 113.062 534.226 119.782H518.476ZM540.99 163V101.008H557.37V163H540.99ZM540.99 93.574V78.328H557.37V93.574H540.99ZM594.588 150.652C598.62 150.652 601.938 149.14 604.542 146.116C607.23 143.008 608.574 138.808 608.574 133.516C608.574 120.244 603.912 113.608 594.588 113.608C585.264 113.608 580.602 119.908 580.602 132.508C580.602 138.052 581.904 142.462 584.508 145.738C587.196 149.014 590.556 150.652 594.588 150.652ZM608.07 154.684C606.894 157.456 604.752 159.64 601.644 161.236C598.62 162.748 595.092 163.504 591.06 163.504C585.936 163.504 581.61 162.622 578.082 160.858C574.638 159.01 571.824 156.616 569.64 153.676C567.54 150.736 565.986 147.334 564.978 143.47C564.054 139.606 563.592 135.658 563.592 131.626C563.592 126.838 564.306 122.47 565.734 118.522C567.162 114.49 569.094 111.088 571.53 108.316C573.966 105.46 576.822 103.276 580.098 101.764C583.374 100.168 586.902 99.37 590.682 99.37C598.41 99.37 604.206 102.478 608.07 108.694V101.008H624.45V163.63C624.45 168.334 623.652 172.45 622.056 175.978C620.46 179.59 618.276 182.572 615.504 184.924C612.732 187.36 609.456 189.208 605.676 190.468C601.896 191.728 597.864 192.358 593.58 192.358C589.296 192.358 585.306 191.728 581.61 190.468C577.914 189.292 574.722 187.57 572.034 185.302C569.43 183.118 567.372 180.43 565.86 177.238C564.348 174.046 563.592 170.434 563.592 166.402H578.838C578.838 170.182 580.056 173.08 582.492 175.096C585.012 177.196 588.33 178.246 592.446 178.246C596.814 178.246 600.51 177.028 603.534 174.592C606.558 172.24 608.07 169.006 608.07 164.89V154.684ZM671.357 163V125.452C671.357 120.664 670.559 117.43 668.963 115.75C667.367 114.07 664.637 113.23 660.773 113.23C652.289 113.23 648.047 117.976 648.047 127.468V163H631.667V101.008H647.291V110.08C649.223 106.552 651.785 103.906 654.977 102.142C658.169 100.294 662.285 99.37 667.325 99.37C670.265 99.37 672.995 99.832 675.515 100.756C678.035 101.596 680.177 102.898 681.941 104.662C683.789 106.426 685.217 108.61 686.225 111.214C687.317 113.734 687.863 116.674 687.863 120.034V163H671.357Z" fill="url(#paint0_linear_62_13)"/>
</g>
<defs>
<linearGradient id="paint0_linear_62_13" x1="345" y1="80" x2="668" y2="182.5" gradientUnits="userSpaceOnUse">
<stop stop-color="#0051FF"/>
<stop offset="1" stop-color="#0095FF"/>
</linearGradient>
</defs>
</svg>
